<svg width="28" height="27" viewBox="0 0 28 27" fill="none" xmlns="http://www.w3.org/2000/svg">
<path d="M27.8712 3.28559C27.0737 4.70495 26.1492 5.85817 25.0978 6.74527V7.67672C25.0978 9.89446 24.7534 12.1455 24.0646 14.4297C23.3758 16.714 22.3697 18.7765 21.0465 20.6172C19.7232 22.458 18.0827 23.966 16.125 25.1414C14.1673 26.3168 11.9196 26.9045 9.38182 26.9045C7.78665 26.9045 6.28212 26.6384 4.86822 26.1062C3.45433 25.5739 2.13107 24.8199 0.898438 23.8441C1.11596 23.8884 1.33348 23.9217 1.55101 23.9439C1.76853 23.966 1.98605 23.9771 2.20357 23.9771C3.50871 23.9771 4.7504 23.711 5.92865 23.1787C7.10689 22.6465 8.16732 21.9368 9.10991 21.0497C7.87729 21.0054 6.79874 20.5507 5.87427 19.6858C4.9498 18.8209 4.30629 17.7009 3.94375 16.3259C4.12502 16.4146 4.29723 16.459 4.46037 16.459H4.97699C5.48454 16.459 5.95584 16.3924 6.39088 16.2594C5.122 15.9045 4.07064 15.1172 3.2368 13.8975C2.40297 12.6777 1.98605 11.2473 1.98605 9.60616V9.53962C2.38484 9.7614 2.78363 9.94991 3.18242 10.1051C3.58122 10.2604 4.01626 10.338 4.48756 10.338C3.76248 9.71704 3.17336 8.91866 2.72019 7.94285C2.26702 6.96704 2.04043 5.90253 2.04043 4.7493C2.04043 3.50736 2.29421 2.37632 2.80176 1.35615C4.1794 3.39648 5.84708 5.0487 7.80478 6.31281C9.76248 7.57692 11.8833 8.27551 14.1673 8.40858C14.0586 7.87632 14.0042 7.36624 14.0042 6.87833C14.0042 5.94688 14.1492 5.07087 14.4392 4.25031C14.7292 3.42974 15.128 2.70898 15.6356 2.08801C16.1431 1.46704 16.7323 0.979138 17.403 0.624299C18.0737 0.26946 18.7897 0.092041 19.551 0.092041C20.3486 0.092041 21.0918 0.280549 21.7806 0.657565C22.4694 1.03458 23.0676 1.55575 23.5752 2.22107C24.2277 2.08801 24.844 1.87732 25.4241 1.58902C26.0042 1.30071 26.5661 0.95696 27.1099 0.557767C26.6749 2.1989 25.8592 3.46301 24.6628 4.35011C25.8229 4.12833 26.8924 3.77349 27.8712 3.28559Z" fill="#79AC78"/>
</svg>
